<?xml version="1.0" encoding="utf-8"?>
<!-- Generator: Adobe Illustrator 27.5.0, SVG Export Plug-In . SVG Version: 6.00 Build 0)  -->
<svg version="1.1" xmlns="http://www.w3.org/2000/svg" xmlns:xlink="http://www.w3.org/1999/xlink" x="0px" y="0px"
	 viewBox="0 0 750 500" style="enable-background:new 0 0 750 500;" xml:space="preserve">
<g id="BACKGROUND">
</g>
<g id="OBJECTS">
	<g>
		<g>
			<g>
				<path style="fill:#ECCAAD;" d="M587.332,95.189c0,0,12.174-14.063,28.127-6.087s18.555,45.652,8.536,74.127l-23.019-2.761
					L587.332,95.189z"/>
				<path style="fill:#E9968B;" d="M606.615,148.682c0,0-0.414,8.623,1.56,8.843c1.975,0.219,26.497-4.572,25.838,1.133
					c-0.658,5.705-29.529,33.045-58.981,18.58c-6.981-3.428-0.878-8.558,5.486-12.727c6.364-4.169,6.803-9.436,3.072-21.944
					C579.86,130.059,606.615,148.682,606.615,148.682z"/>
				<path style="fill:#FFAB9C;" d="M591.052,95.388c0,0,25.531-6.958,31.38,21.285s-15.636,44.711-36.106,27.834
					C565.855,127.631,560.834,96.077,591.052,95.388z"/>
				<path style="fill:#FFAB9C;" d="M577.007,128.805c0,0-6.497-7.691-8.207,0.452c-1.71,8.143,11.285,19.454,14.704,10.406
					C586.924,130.615,577.007,128.805,577.007,128.805z"/>
				<path style="fill:#FCDDBF;" d="M602.445,95.189c0,0-1.049,28.756-22.879,33.374c0,0-0.623-1.711-2.106-2.51
					c-2.497-1.345-6.327-1.312-5.669,5.009c0,0,2.737,12.823,9.454,6.106c0,0,8.152,12.012,6.893,29.224
					c0,0-15.292,8.437-31.241-1.517c0,0,7.137-18.681,5.247-34.424c-1.889-15.742-1.469-36.942,17.841-40.93
					S602.445,95.189,602.445,95.189z"/>
				<path style="fill:#FCDDBF;" d="M579.146,127.723l2.005,6.371c0,0,2.636-3.427,1.055-8.701
					C580.623,120.121,579.146,127.723,579.146,127.723z"/>
			</g>
			<g>
				<path style="fill:#251E28;" d="M620.16,119.236c0.219,1.941-0.267,3.589-1.086,3.681c-0.818,0.092-1.659-1.406-1.877-3.347
					c-0.219-1.941,0.267-3.589,1.086-3.681C619.101,115.797,619.941,117.295,620.16,119.236z"/>
				<path style="fill:#251E28;" d="M600.4,121.038c0.219,1.941-0.267,3.589-1.086,3.681c-0.818,0.092-1.659-1.406-1.877-3.347
					c-0.219-1.941,0.267-3.589,1.085-3.681C599.341,117.599,600.181,119.098,600.4,121.038z"/>
				<g>
					<path style="fill:#251E28;" d="M621.065,109.94c0,0-0.858-0.19-2.052-0.358c-0.301-0.034-0.621-0.076-0.956-0.101
						c-0.334-0.044-0.687-0.025-1.043-0.044c-0.356,0.01-0.721,0.014-1.083,0.052c-0.361,0.052-0.729,0.075-1.079,0.183
						c-0.364,0.053-0.699,0.194-1.041,0.308c-0.351,0.094-0.645,0.305-0.973,0.433c-0.316,0.15-0.59,0.361-0.882,0.522
						c-0.296,0.157-0.514,0.394-0.765,0.561c-0.232,0.187-0.479,0.336-0.651,0.516c-0.179,0.172-0.352,0.314-0.493,0.435
						c-0.286,0.239-0.467,0.374-0.467,0.374s0.055-0.207,0.184-0.565c0.066-0.178,0.145-0.398,0.254-0.642
						c0.09-0.257,0.259-0.505,0.444-0.781c0.195-0.266,0.356-0.608,0.651-0.862c0.28-0.265,0.544-0.595,0.9-0.837
						c0.365-0.225,0.713-0.53,1.146-0.686c0.419-0.188,0.853-0.364,1.313-0.449c0.453-0.121,0.916-0.151,1.37-0.17
						c0.452-0.014,0.896,0.036,1.314,0.097c0.835,0.155,1.574,0.416,2.159,0.723C620.497,109.245,621.065,109.94,621.065,109.94z"/>
				</g>
				<g>
					<path style="fill:#D2807A;" d="M608.013,118.176c0.724,0.587,1.379,1.223,1.991,1.888c0.617,0.662,1.2,1.347,1.752,2.054
						c0.285,0.347,0.552,0.707,0.811,1.072c0.258,0.366,0.537,0.717,0.779,1.094c0.5,0.743,0.988,1.494,1.437,2.272l0.322,0.558
						l-0.364,0.399c-0.267,0.292-0.564,0.558-0.847,0.836c-0.281,0.28-0.581,0.544-0.881,0.807c-0.6,0.528-1.223,1.036-1.912,1.49
						c0.322-0.759,0.71-1.464,1.121-2.149c0.205-0.343,0.41-0.686,0.635-1.013c0.222-0.329,0.431-0.669,0.67-0.984l-0.042,0.956
						c-0.571-0.694-1.103-1.414-1.622-2.143c-0.268-0.359-0.5-0.743-0.751-1.113c-0.25-0.371-0.494-0.747-0.719-1.136
						c-0.469-0.764-0.905-1.551-1.308-2.361C608.674,119.896,608.308,119.061,608.013,118.176z"/>
				</g>
				<g>
					<path style="fill:#D2807A;" d="M600.547,136.978c0,0,0.26,0.034,0.705,0.068c0.443,0.039,1.069,0.084,1.804,0.107
						c0.367,0.018,0.764,0.008,1.178,0.013c0.414,0.007,0.849-0.045,1.292-0.047c0.444-0.047,0.901-0.073,1.357-0.149l0.691-0.093
						l0.683-0.158c0.465-0.065,0.906-0.22,1.35-0.344c0.445-0.12,0.862-0.302,1.283-0.443c0.418-0.148,0.795-0.357,1.18-0.511
						c0.386-0.154,0.716-0.364,1.046-0.529c0.314-0.186,0.647-0.305,0.892-0.48c0.253-0.165,0.488-0.297,0.681-0.41
						c0.39-0.222,0.63-0.342,0.63-0.342s-0.127,0.224-0.379,0.604c-0.128,0.188-0.282,0.421-0.477,0.675
						c-0.178,0.273-0.447,0.508-0.723,0.791c-0.283,0.274-0.574,0.603-0.958,0.848c-0.375,0.255-0.745,0.585-1.199,0.798
						c-0.453,0.208-0.891,0.515-1.403,0.659c-0.502,0.165-1.006,0.364-1.537,0.46l-0.793,0.146c-0.266,0.025-0.531,0.05-0.794,0.074
						c-0.524,0.075-1.046,0.001-1.543,0c-0.995-0.09-1.907-0.268-2.65-0.542c-0.749-0.244-1.333-0.552-1.725-0.788
						C600.746,137.152,600.547,136.978,600.547,136.978z"/>
				</g>
				<g>
					<path style="fill:#251E28;" d="M601.298,111.913c0,0-0.986-0.201-2.361-0.397c-0.348-0.035-0.715-0.09-1.103-0.119
						c-0.386-0.049-0.793-0.04-1.205-0.068c-0.412-0.022-0.835,0.025-1.257,0.034c-0.417,0.065-0.849,0.058-1.256,0.176l-0.62,0.12
						c-0.196,0.072-0.396,0.13-0.594,0.192c-0.406,0.101-0.769,0.292-1.141,0.447c-0.38,0.14-0.688,0.393-1.03,0.562
						c-0.343,0.172-0.614,0.416-0.899,0.609c-0.265,0.213-0.564,0.365-0.763,0.569c-0.209,0.193-0.41,0.352-0.574,0.488
						c-0.332,0.268-0.543,0.419-0.543,0.419s0.069-0.235,0.226-0.643c0.081-0.202,0.177-0.453,0.309-0.731
						c0.109-0.295,0.324-0.565,0.54-0.88c0.224-0.308,0.441-0.678,0.787-0.961c0.335-0.289,0.636-0.681,1.077-0.912
						c0.424-0.249,0.838-0.579,1.341-0.736l0.741-0.284l0.777-0.174c0.52-0.128,1.05-0.124,1.567-0.15
						c0.514,0.012,1.02,0.067,1.494,0.151c0.954,0.168,1.791,0.49,2.464,0.828C600.631,111.133,601.298,111.913,601.298,111.913z"/>
				</g>
			</g>
		</g>
		<g>
			<g>
				<ellipse style="opacity:0.2;fill:#352C38;" cx="591.98" cy="477.822" rx="60.935" ry="10.294"/>
				<path style="fill:#6F95BC;" d="M588.929,222.893c0,0-27.742,23.581-22.888,63.808c4.855,40.227,31.904,69.356,31.904,69.356
					s-15.952,14.565-24.275,39.533c-8.323,24.968-12.367,67.902-12.367,67.902l13.871,4.161l28.319-54.724l-8.323,54.098
					l12.484,1.387c0,0,52.711-90.857,55.485-149.116c2.774-58.259-17.339-81.84-41.614-101.26
					C597.251,198.619,588.929,222.893,588.929,222.893z"/>
				<path style="opacity:0.2;fill:#251E28;" d="M631.367,353.392c3.64-17.289-1.573-78.725-1.573-78.725
					c18.394-6.293,16.179-5.16,24.788-15.939c6.375,14.985,9.812,34.224,8.557,60.57c-2.774,58.259-55.485,149.116-55.485,149.116
					l-12.484-1.387l8.106-52.687C614.951,392.019,629.26,363.402,631.367,353.392z"/>
			</g>
			<g>
				<path style="fill:#352C38;" d="M577.064,384.347c0,0,16.874,1.406,35.506,13.007l-1.954,3.778l-36.364,72.155
					c0,0-14.413,9.492-21.795,9.492s7.68-15.095,7.846-16.88C561.708,450.782,569.681,397.706,577.064,384.347z"/>
				<path style="fill:#28212B;" d="M640.785,403.1c0,0-14.774-6.229-27.429-9.745l-10.981,22.982c0,0-10.395,57.617-10.395,61.484
					c0,3.867,58.204,9.175,18.129-5.589C610.109,472.232,637.898,411.04,640.785,403.1z"/>
			</g>
		</g>
		<g>
			<path style="fill:#E9968B;" d="M644.387,160.694c0,0,34.312,3.134,48.994,14.022c6.717,4.981-39.426,12.207-40.086,12.207
				s-5.774-8.413-5.774-8.413L644.387,160.694z"/>
			<g>
				<path style="fill:#765E69;" d="M584.974,224.924c0,0-27.948,31.639-22.147,80.151c0,0,45.349,21.62,107.571-3.164
					c0,0-3.691-55.895-35.33-75.405L584.974,224.924z"/>
				<path style="opacity:0.3;fill:#352C38;" d="M640.393,285.452c-18.012-3.488-37.235-7.887-52.107-19.242
					c-7.1-5.421-12.246-12.436-16.209-20.163c-6.403,14.003-12.205,34.32-9.251,59.028c0,0,45.349,21.62,107.571-3.164
					c0,0-0.384-5.786-1.954-14.279C659.109,288.454,649.505,287.216,640.393,285.452z"/>
			</g>
			<g>
				<path style="fill:#765E69;" d="M643.084,187.014c9.415-3.414,13.152-17.422,13.015-26.815
					c-7.588-2.145-13.378-3.52-17.494-4.755c-2.588-0.777-5.835-0.95-9.018-0.838c-5.02,7.893-10.723,16.029-20.5,18.031
					c-12.339,2.526-23.8-1.197-35.335-5.002c-13.2,7.377-12.352,15.054-9.167,26.732c3.079,11.292,21.443,32.666,21.443,32.666
					c21.092,9.492,49.04-0.527,49.04-0.527c17.426-18.726,5.184-39.678,5.184-39.678s0.788,0.267,2.103,0.708
					C642.529,187.316,642.765,187.13,643.084,187.014z"/>
				<path style="opacity:0.3;fill:#352C38;" d="M636.838,201.269c-10.917,3.628-23.917,5.551-33.76-0.777
					c-11.766-7.564-16.522,7.382-38.794-7.243c0.098,0.369,0.198,0.742,0.301,1.119c3.079,11.292,21.443,32.666,21.443,32.666
					c21.092,9.492,49.04-0.527,49.04-0.527c9.225-9.914,10.135-20.45,8.948-28.172C641.678,199.46,639.28,200.457,636.838,201.269z"
					/>
				<path style="fill:#352C38;" d="M583.97,224.852c0,0,20.514,9.036,51.098,1.653c0,0-20.741,14.413-53.786,2.461L583.97,224.852z"
					/>
			</g>
		</g>
		<g>
			<g>
				<path style="fill:#FFB7AD;" d="M642.118,199.973c18.893,31.907,3.753-0.843,3.753-0.843c15.513,23.831,2.204-2.908,2.204-2.908
					l23.168,0.442c0.125-0.046,0.26-0.081,0.413-0.093c0.106-0.008,0.223-0.022,0.332-0.032l0.431-0.072c0,0,0,0.016,0.001,0.031
					c6.815-0.724,19.399-4.349,24.797-11.386c-0.093-6.232-1.399-10.882-4.764-12.071c-12.998-4.594-38.323,3.384-50.421,11.827
					c-8.197,5.721-5.641,15.554-5.641,15.554c9.315,22.134,3.721,0.669,3.721,0.669
					C655.604,228.823,642.118,199.973,642.118,199.973z"/>
			</g>
			<g>
				<g>
					<path style="fill:none;stroke:#352C38;stroke-width:1.2428;stroke-miterlimit:10;" d="M665.535,159.524l-5.448,18.306
						c0,0-4.143-5.934-5.472-0.64"/>
					<path style="fill:none;stroke:#352C38;stroke-width:1.2428;stroke-miterlimit:10;" d="M653.13,179.335
						c0,0,3.247-5.393,6.957-1.505"/>
				</g>
				<g>
					<path style="fill:none;stroke:#352C38;stroke-width:1.2428;stroke-miterlimit:10;" d="M674.255,158.473l-5.448,18.306
						c0,0-4.449-6.698-5.779-1.403"/>
					<path style="fill:none;stroke:#352C38;stroke-width:1.2428;stroke-miterlimit:10;" d="M662.368,177.355
						c0,0,2.729-4.464,6.439-0.576"/>
				</g>
				<path style="fill:#352C38;" d="M639.63,129.878c0,0-2.794-6.716,1.636-5.051c4.43,1.665,6.603,1.566,6.603,1.566l-11.313-14.681
					C636.556,111.712,635.327,124.164,639.63,129.878z"/>
				<path style="fill:#6F95BC;" d="M655.784,129.454c0,0-7.04,9.34,18.893,32.421c25.933,23.081,82.61,65.602,29.206,12.979
					c0,0,34.864,27.962,4.797-3.951c0,0,30.293,23.193-5.024-21.544C668.34,104.622,655.784,129.454,655.784,129.454z"/>
				<path style="fill:#FFA55B;" d="M663.347,138.441c0,0,4.403,14.729,7.69,4.938c0,0,12.431,27.117,14.603,13.332
					c0,0,21.263,22.982,8.027-8.141c0,0,21.066,32.322,10.046,2.031c0,0,17.044,5.445-10.328-15.082
					C666.013,114.992,663.347,138.441,663.347,138.441z"/>
				<path style="fill:#FB6A5A;" d="M689.434,130.723c-9.975-7.322-23.083-15.124-29.023-22.629
					c-5.94-7.506-16.211-7.66-22.631-5.191c-6.419,2.469-3.992,7.958-3.992,7.958c0.596,2.695,1.478,4.918,2.511,6.766
					c0.258-0.134,0.531-0.197,0.81-0.192c2.439-0.807,4.718-0.3,6.537,1.848c1.754,2.07,2.556,4.715,3.873,7.051
					c0.222,0.044,0.35,0.061,0.35,0.061s2.752,12.627,5.094,16.253c2.342,3.626,8.452,8.013,8.452,8.013s0.903,11.747,1.623,13.891
					c0.72,2.145,11.64-2.675,11.64-2.675l-7.563-8.987c-12.91-10.299-11.33-23.434-11.33-23.434
					c6.999,17.099,12.049,5.05,12.049,5.05c14.928,13.628,10.413,3.259,10.413,3.259c5.559,5.968,5.841-1.51,5.841-1.51
					c13.559,10.891,4.585-1.764,4.585-1.764C695.642,144.126,699.409,138.045,689.434,130.723z"/>
				<path style="fill:#FCECED;" d="M647.869,126.393c0,0-10.85-6.038-10.046-15.717c0.804-9.679,11.343-3.626,12.726-0.579
					C650.549,110.097,646.754,115.558,647.869,126.393z"/>
				<path style="fill:#FCDDBF;" d="M633.788,110.86c0,0,4.016,3.492,4.454,6.271c0,0-1.412,9.224,1.388,12.747
					C639.63,129.878,628.84,123.317,633.788,110.86z"/>
				<path style="fill:#352C38;" d="M641.874,110.685c0.039,0.865,0.773,1.535,1.638,1.496c0.866-0.039,1.535-0.773,1.496-1.638
					c-0.039-0.866-0.773-1.535-1.638-1.496C642.505,109.086,641.835,109.82,641.874,110.685z"/>
			</g>
			<g>
				<g>
					<path style="fill:#FFAB9C;" d="M578.47,199.437l6.036-25.876c0,0,32.026,2.927,35.628,1.73
						c-0.042,0.497,21.682-27.778,21.682-27.778s0.169-12.69,2.154-1.819c0,0,13.455-20.773,4.521-1.419
						c0,0,14.439-19.39,2.896,1.244c0,0,12.782-17.529,2.051,1.773c0,0,10.396-15.329,1.777,2.651
						c-8.705,18.161-16.706,34.732-26.827,47.385C621.791,205.575,578.47,199.437,578.47,199.437z"/>
				</g>
				<g>
					<path style="fill:#E9968B;" d="M583.077,193.035c2.414-6.2,5.046-12.423,5.269-19.138c-2.357-0.2-3.841-0.336-3.841-0.336
						l-6.036,25.876c0,0,0.769,0.109,2.107,0.277C581.393,197.481,582.214,195.251,583.077,193.035z"/>
				</g>
			</g>
		</g>
	</g>
	<g>
		<ellipse style="opacity:0.2;fill:#352C38;" cx="406.114" cy="474.422" rx="77.293" ry="13.532"/>
		<g>
			<g>
				<path style="fill:#352C38;" d="M380.473,454.026l2.014,18.46c0,0-68.134,17.453-14.097-6.041l-2.35-12.419H380.473z"/>
				<path style="fill:#352C38;" d="M427.462,438.251l8.037,35.442c0,0,70.284,2.647,12.5-8.886l-6.776-39.645L427.462,438.251z"/>
			</g>
			<g>
				<path style="fill:#FFA55B;" d="M357.985,232.146c0,0-30.207,81.291,6.042,227.304l21.145-0.518
					c0,0-10.573-119.089-4.531-179.151l7.552,2.589c0,0,30.207,158.44,42.29,181.222c0,0,10.573,0,21.649-6.213
					c0,0-29.2-159.475-32.725-208.147C415.68,197.758,357.985,232.146,357.985,232.146z"/>
				<g>
					<path style="opacity:0.3;fill:#352C38;" d="M420.224,258.309c-0.343-3.329-0.621-6.381-0.816-9.076
						c-3.727-51.475-61.422-17.087-61.422-17.087s-0.996,2.688-2.406,7.936C374.18,247.842,397.676,255.807,420.224,258.309z"/>
					<path style="opacity:0.3;fill:#352C38;" d="M380.603,280.179l-31.082-8.974c-5.109,37.582-7.032,101.488,14.506,188.245
						l21.145-0.518C385.172,458.932,374.647,340.366,380.603,280.179z"/>
				</g>
			</g>
		</g>
		<g>
			<g>
				<path style="fill:#6F95BC;" d="M387.186,122.585c0,0,50.849,16.111,63.939,25.676c13.09,9.566-25.676,62.429-29.201,105.222
					c0,0-33.732-1.51-67.463-19.131c0,0,5.035-44.304,18.628-80.049l-18.628-9.062l13.593-29.704L387.186,122.585z"/>
				<path style="opacity:0.3;fill:#352C38;" d="M361.142,195.705c-4.734,21.533-6.681,38.647-6.681,38.647
					c33.732,17.621,67.463,19.131,67.463,19.131c2.339-28.398,20.185-61.218,28.11-82.889
					C422.004,183.39,392.095,191.433,361.142,195.705z"/>
			</g>
			<g>
				<g>
					<path style="fill:#5D8483;" d="M289.643,61.375c0,0,0.096-0.168,0.284-0.5c0.173-0.304,0.416-0.74,0.753-1.287
						c0.673-1.095,1.656-2.688,3.104-4.641c0.719-0.981,1.542-2.062,2.486-3.23c0.962-1.15,2.045-2.385,3.27-3.688
						c2.45-2.604,5.485-5.471,9.397-8.274c3.904-2.792,8.712-5.58,14.74-7.466c3.001-0.95,6.317-1.608,9.846-1.871
						c3.528-0.258,7.27-0.036,11.013,0.676c3.737,0.75,7.456,1.997,10.964,3.699c1.751,0.855,3.463,1.805,5.105,2.851
						c0.831,0.516,1.639,1.058,2.433,1.62l0.602,0.419l0.653,0.492l0.557,0.432l0.758,0.619c3.55,2.977,6.407,6.454,8.736,10.192
						c2.317,3.733,4.088,7.68,5.456,11.698c2.744,8.048,3.934,16.399,4.222,24.864c0.27,8.471-0.348,17.098-1.969,25.826
						c-0.808,4.364-1.849,8.756-3.188,13.17c-1.338,4.416-2.984,8.848-5.112,13.281c-2.147,4.429-4.697,8.889-8.371,13.239
						c-1.85,2.163-3.994,4.315-6.708,6.251c-2.699,1.915-6.042,3.657-9.984,4.471c-3.914,0.857-8.256,0.556-11.895-0.62
						c-3.669-1.166-6.661-3.01-9.148-4.96c-0.566-0.448-0.249-0.202-0.417-0.338l-0.16-0.136l-0.46-0.406l-0.501-0.471
						c-0.534-0.531-0.988-1.045-1.439-1.613c-0.884-1.126-1.611-2.357-2.161-3.588c-1.107-2.478-1.52-4.884-1.622-6.983
						c-0.155-4.215,0.687-7.482,1.661-10.42c2.042-5.81,4.934-10.436,8.207-14.755c3.294-4.285,7.035-8.156,11.373-11.595
						c4.353-3.402,9.289-6.475,15.445-8.311c3.072-0.893,6.495-1.435,10.13-1.214c3.621,0.204,7.409,1.278,10.634,3.102
						c6.534,3.652,10.392,9.597,12.686,14.42c0.334,0.731,0.694,1.503,0.985,2.208c0.263,0.677,0.536,1.355,0.783,2.035l0.681,2.042
						l0.587,2.042c0.72,2.721,1.207,5.423,1.541,8.083c0.657,5.322,0.742,10.486,0.549,15.495
						c-0.187,5.015-0.639,9.892-1.177,14.676c-1.086,9.559-2.537,18.776-3.487,27.723c-0.938,8.907-1.433,17.669-0.133,25.359
						c0.651,3.827,1.783,7.307,3.502,10.178c1.71,2.88,4.012,5.181,6.924,6.959c6.194,3.725,10.233,3.35,15.713-1.359
						c2.604-2.283,5.078-5.276,7.463-8.43c2.395-3.167,4.719-6.531,7.216-9.9c2.517-3.363,5.147-6.78,8.613-9.961
						c1.739-1.578,3.734-3.103,6.146-4.313c2.396-1.207,5.311-2.014,8.228-1.986c2.918,0.009,5.644,0.782,7.903,1.837
						c2.283,1.056,4.182,2.37,5.882,3.732c3.373,2.748,5.993,5.726,8.34,8.692c2.435,3.132,4.575,6.418,6.11,10.283
						c0.759,1.92,1.333,3.981,1.601,6.137c0.276,2.15,0.211,4.396-0.204,6.533c-0.827,4.326-3.03,7.912-5.361,10.647
						c-2.361,2.766-4.908,4.881-7.386,6.735c-4.98,3.67-9.757,6.345-14.015,8.874c-4.262,2.502-8.048,4.784-11.085,7.059
						c-3.042,2.258-5.289,4.53-6.449,6.554c-1.175,2.023-1.349,3.718-1.181,5.234c0.167,1.51,0.696,2.765,1.069,3.596
						c0.392,0.836,0.646,1.268,0.646,1.268c1.109,1.886,0.479,4.313-1.407,5.422c-1.886,1.109-4.313,0.479-5.422-1.407l-0.003-0.005
						c0,0-0.087-0.148-0.258-0.44c-0.173-0.289-0.42-0.734-0.731-1.338c-0.59-1.219-1.519-3.091-1.977-5.968
						c-0.221-1.427-0.291-3.113-0.007-4.927c0.274-1.812,0.91-3.721,1.871-5.512c1.931-3.613,4.972-6.673,8.424-9.453
						c3.471-2.79,7.436-5.352,11.644-8.031c4.189-2.682,8.701-5.459,12.85-8.761c4.111-3.254,7.861-7.312,8.413-11.416
						c0.32-2.044-0.05-4.27-1.097-6.7c-1.026-2.404-2.743-4.951-4.717-7.322c-2.099-2.51-4.386-4.883-6.78-6.701
						c-1.191-0.899-2.407-1.651-3.545-2.124c-1.145-0.486-2.159-0.677-3.057-0.644c-0.9,0.037-1.784,0.286-2.827,0.845
						c-1.034,0.563-2.168,1.433-3.299,2.535c-2.278,2.207-4.509,5.181-6.727,8.368c-2.229,3.202-4.465,6.661-6.971,10.199
						c-2.523,3.531-5.27,7.191-8.946,10.65c-1.842,1.719-3.952,3.384-6.456,4.775c-2.493,1.385-5.436,2.456-8.55,2.834
						c-3.11,0.4-6.275,0.081-9.115-0.68c-1.425-0.379-2.78-0.865-4.066-1.419c-0.629-0.275-1.266-0.568-1.955-0.919l-0.79-0.411
						l-0.183-0.096l-0.301-0.169l-0.44-0.257c-4.722-2.651-9.064-6.667-12.07-11.427c-3.047-4.75-4.821-9.991-5.853-15.075
						c-1.029-5.106-1.393-10.139-1.451-15.057c-0.054-4.922,0.187-9.751,0.547-14.514c0.724-9.52,1.901-18.816,2.651-27.929
						c0.741-9.075,1.109-18.078-0.14-26.129c-0.314-2.003-0.732-3.933-1.274-5.748l-0.432-1.338l-0.478-1.292l-0.525-1.243
						l-0.478-1.002c-0.025-0.064-0.092-0.189-0.168-0.326l-0.211-0.387l-0.422-0.774l-0.575-0.913
						c-0.452-0.684-0.92-1.305-1.394-1.839c-0.951-1.079-1.899-1.811-2.782-2.241c-0.889-0.433-1.734-0.631-2.787-0.651
						c-1.046-0.015-2.308,0.192-3.696,0.657c-2.788,0.924-5.913,2.855-8.746,5.27c-2.85,2.418-5.483,5.325-7.677,8.406
						c-2.177,3.058-3.961,6.427-4.794,9.253c-0.425,1.371-0.519,2.62-0.439,2.926c0.026,0.152,0.074-0.009-0.095-0.437
						c-0.083-0.208-0.225-0.47-0.409-0.717c-0.096-0.133-0.175-0.229-0.31-0.365c-0.061-0.064-0.126-0.126-0.193-0.185
						c-0.041-0.039-0.195-0.16-0.149-0.123l0.165,0.13c-0.058-0.048,0.364,0.29-0.089-0.074c1.064,0.773,2.004,1.202,2.6,1.338
						c0.613,0.122,0.841,0.087,1.241-0.031c0.387-0.111,1.041-0.422,1.874-1.073c0.828-0.642,1.79-1.594,2.717-2.756
						c1.876-2.329,3.615-5.399,5.071-8.653c2.905-6.576,4.929-13.886,6.135-21.079c1.188-7.213,1.719-14.374,1.47-21.125
						c-0.25-6.741-1.253-13.097-3.004-18.457c-1.735-5.361-4.382-9.59-7.191-11.964l-0.17-0.149l-0.041-0.039l-0.11-0.086
						l-0.237-0.184l-0.237-0.184l-0.118-0.092c-0.186-0.142,0.119,0.088,0.056,0.042l-0.371-0.272
						c-0.491-0.372-0.983-0.724-1.477-1.048c-0.982-0.67-1.964-1.248-2.937-1.761c-0.972-0.522-1.93-0.956-2.88-1.354
						c-0.954-0.36-1.894-0.687-2.83-0.922c-3.719-1.005-7.378-0.986-10.97-0.305c-3.588,0.673-7.023,2.05-10.104,3.594
						c-3.078,1.57-5.807,3.321-8.145,4.958c-1.165,0.826-2.226,1.636-3.184,2.403c-0.976,0.749-1.847,1.459-2.616,2.109
						c-3.076,2.621-4.575,4.122-4.488,3.995c-2.119,2.965-6.241,3.651-9.206,1.533C288.21,68.462,287.524,64.34,289.643,61.375z"/>
					<path style="fill:#4C7270;" d="M348.689,164.219c3.942-0.814,7.285-2.556,9.984-4.471c2.714-1.935,4.858-4.087,6.708-6.251
						c3.674-4.35,6.224-8.81,8.371-13.239c1.45-3.021,2.663-6.042,3.72-9.057c0.316,1.283,0.599,2.595,0.813,3.958
						c1.249,8.051,0.881,17.054,0.14,26.129c-0.146,1.767-0.317,3.547-0.488,5.327c6.063-3.239,12.004-6.68,17.712-10.507
						c0.222-2.591,0.399-5.212,0.498-7.874c0.193-5.008,0.108-10.173-0.549-15.495c-0.334-2.66-0.822-5.362-1.541-8.083
						l-0.587-2.042l-0.681-2.042c-0.247-0.679-0.519-1.357-0.783-2.035c-0.291-0.706-0.651-1.478-0.985-2.208
						c-1.64-3.45-4.088-7.469-7.736-10.817c0.678-5.905,0.918-11.756,0.734-17.533c-0.193-5.663-0.803-11.272-1.999-16.775
						c-1.806,0.522-3.611,1.044-5.417,1.568c-5.368,1.559-10.814,3.591-16.331,5.002c0.626,3.467,1.02,7.161,1.161,10.988
						c0.125,3.383,0.053,6.87-0.198,10.414c-1.268,0.216-2.493,0.504-3.666,0.845c-6.156,1.836-11.091,4.909-15.445,8.311
						c-4.338,3.439-8.079,7.311-11.373,11.595c-3.273,4.319-6.165,8.945-8.207,14.755c-0.974,2.938-1.816,6.205-1.661,10.42
						c0.102,2.099,0.515,4.505,1.622,6.983c0.551,1.231,1.277,2.462,2.161,3.588c0.451,0.568,0.905,1.082,1.439,1.613l0.501,0.471
						l0.46,0.406l0.16,0.136c0.168,0.135-0.149-0.11,0.417,0.338c2.487,1.95,5.479,3.794,9.148,4.96
						C340.432,164.774,344.775,165.076,348.689,164.219z M342.928,143.481c-0.375-0.086-0.896-0.302-1.489-0.633
						c0.067-0.521,0.196-1.176,0.408-1.86c0.833-2.826,2.618-6.194,4.794-9.253c2.194-3.081,4.827-5.988,7.677-8.406
						c1.015-0.865,2.068-1.664,3.129-2.381c-1.003,3.448-2.204,6.821-3.617,10.02c-1.456,3.254-3.195,6.324-5.071,8.653
						c-0.927,1.162-1.889,2.114-2.717,2.756c-0.833,0.65-1.487,0.962-1.874,1.072C343.769,143.568,343.541,143.603,342.928,143.481z
						"/>
					<path style="fill:#F09B7C;" d="M370.886,119.151l-21.723-8.146c0,0-2.517-52.359-3.021-56.387
						c-0.504-4.028-12.083-8.559-12.083-8.559s11.076-42.29-3.524-5.035c0,0,3.021-35.242-4.531-2.014c0,0-1.007-31.718-4.028-0.503
						c0,0-8.559-31.214-1.51,6.042l13.09,14.6c0,0-10.573,46.318-6.545,63.435c0,0,1.51,5.538,7.552,7.552
						c2.792,0.931,13.862,5.732,24.963,10.627C363.256,133.533,367.128,126.372,370.886,119.151z"/>
				</g>
				<g>
					<path style="fill:#5D8483;" d="M484.991,227.86c-0.268-2.155-0.842-4.217-1.601-6.137c-1.535-3.864-3.675-7.15-6.11-10.282
						c-2.348-2.966-4.967-5.944-8.34-8.692c-1.699-1.362-3.598-2.676-5.882-3.732c-2.259-1.055-4.985-1.827-7.903-1.837
						c-2.917-0.028-5.831,0.779-8.228,1.986c-2.412,1.21-4.407,2.735-6.146,4.313c-3.467,3.181-6.097,6.598-8.614,9.961
						c-2.497,3.369-4.821,6.732-7.216,9.9c-2.386,3.154-4.859,6.147-7.463,8.43c-5.48,4.709-9.519,5.084-15.713,1.359
						c-2.912-1.778-5.214-4.079-6.924-6.959c-1.719-2.871-2.851-6.351-3.502-10.178c-1.299-7.69-0.804-16.452,0.133-25.359
						c0.95-8.948,2.401-18.164,3.487-27.723c0.539-4.785,0.99-9.661,1.177-14.676c0.193-5.008,0.108-10.173-0.549-15.495
						c-0.334-2.66-0.822-5.362-1.541-8.083l-0.587-2.042l-0.681-2.042c-0.247-0.679-0.519-1.357-0.783-2.035
						c-0.291-0.706-0.651-1.478-0.985-2.208c-1.64-3.45-4.088-7.469-7.736-10.817c0.678-5.905,0.918-11.756,0.734-17.533
						c-0.288-8.466-1.478-16.816-4.222-24.864c-1.369-4.018-3.139-7.964-5.456-11.698c-2.329-3.737-5.186-7.215-8.736-10.192
						l-0.758-0.619l-0.557-0.432l-0.653-0.491l-0.602-0.419c-0.794-0.563-1.602-1.105-2.433-1.62c-0.167-0.106-0.342-0.2-0.51-0.304
						c-0.896,8.369-2.934,16.515-5.818,24.394c1.621,2.293,3.068,5.209,4.156,8.572c1.751,5.36,2.754,11.716,3.004,18.457
						c0.089,2.402,0.074,4.858-0.03,7.349l0.118,0.045c0,0-1.06,15.896-4.6,26.497c-0.892,2.853-1.914,5.646-3.093,8.314
						c-1.456,3.254-3.195,6.324-5.071,8.653c-0.927,1.162-1.889,2.114-2.717,2.756c-0.833,0.65-1.487,0.962-1.874,1.072
						c-0.399,0.118-0.627,0.154-1.24,0.031c-0.375-0.086-0.896-0.302-1.489-0.633c0.067-0.521,0.196-1.176,0.408-1.86
						c0.193-0.654,0.442-1.339,0.73-2.041l-19.531-5.58c-0.168,0.436-0.341,0.867-0.499,1.317c-0.974,2.938-1.816,6.205-1.661,10.42
						c0.102,2.099,0.515,4.505,1.622,6.983c0.551,1.231,1.277,2.462,2.161,3.588c0.451,0.568,0.905,1.082,1.439,1.613l0.501,0.471
						l0.46,0.406l0.16,0.136c0.168,0.135-0.149-0.11,0.417,0.338c2.487,1.95,5.479,3.794,9.148,4.96
						c3.639,1.176,7.982,1.477,11.895,0.62c3.942-0.814,7.285-2.556,9.984-4.471c2.714-1.935,4.858-4.087,6.708-6.251
						c3.674-4.35,6.224-8.81,8.371-13.239c1.45-3.021,2.663-6.042,3.72-9.057c0.316,1.283,0.599,2.595,0.813,3.958
						c1.249,8.051,0.881,17.054,0.14,26.129c-0.75,9.113-1.928,18.409-2.651,27.929c-0.359,4.762-0.601,9.592-0.547,14.514
						c0.058,4.918,0.422,9.951,1.451,15.057c1.033,5.084,2.806,10.325,5.853,15.075c3.006,4.76,7.348,8.776,12.07,11.427l0.44,0.257
						l0.301,0.169l0.183,0.096l0.79,0.411c0.689,0.351,1.325,0.644,1.955,0.919c1.285,0.554,2.64,1.039,4.066,1.419
						c2.84,0.761,6.005,1.08,9.115,0.68c3.113-0.377,6.056-1.449,8.55-2.834c2.504-1.391,4.614-3.055,6.456-4.775
						c3.676-3.46,6.423-7.12,8.946-10.65c2.506-3.538,4.742-6.997,6.971-10.199c2.218-3.187,4.449-6.161,6.727-8.368
						c1.131-1.102,2.266-1.971,3.299-2.535c1.043-0.559,1.927-0.808,2.827-0.845c0.898-0.033,1.912,0.158,3.057,0.644
						c1.137,0.473,2.354,1.225,3.545,2.124c2.394,1.818,4.681,4.191,6.78,6.701c1.974,2.371,3.691,4.918,4.717,7.322
						c1.047,2.429,1.417,4.655,1.097,6.7c-0.552,4.104-4.301,8.162-8.413,11.416c-4.149,3.302-8.661,6.079-12.85,8.761
						c-4.208,2.679-8.174,5.241-11.644,8.031c-3.453,2.78-6.493,5.84-8.424,9.453c-0.961,1.791-1.597,3.701-1.871,5.512
						c-0.284,1.814-0.215,3.5,0.007,4.927c0.458,2.876,1.387,4.749,1.977,5.968c0.31,0.604,0.558,1.049,0.731,1.338
						c0.171,0.292,0.258,0.44,0.258,0.44l0.003,0.005c1.109,1.886,3.536,2.516,5.422,1.407c1.886-1.109,2.516-3.536,1.407-5.422
						c0,0-0.254-0.432-0.646-1.268c-0.373-0.831-0.902-2.086-1.069-3.596c-0.168-1.517,0.007-3.211,1.182-5.234
						c1.16-2.025,3.407-4.297,6.449-6.554c3.038-2.275,6.823-4.557,11.085-7.059c4.259-2.529,9.035-5.205,14.016-8.875
						c2.478-1.854,5.025-3.969,7.386-6.735c2.331-2.734,4.534-6.32,5.361-10.647C485.202,232.257,485.267,230.01,484.991,227.86z
						 M340.252,142.087c-0.022-0.017,0.002,0.001,0.036,0.029L340.252,142.087z M341.408,143.914
						c-0.013-0.048-0.019-0.127-0.022-0.218C341.458,143.95,341.429,144.035,341.408,143.914z"/>
					<g>
						<path style="fill:#4C7270;" d="M378.285,135.159c0.975,6.287,0.959,13.157,0.555,20.186
							c7.757-6.776,13.544-15.884,16.268-25.836c-0.281-1.608-0.62-3.226-1.05-4.852l-0.587-2.042l-0.681-2.042
							c-0.247-0.679-0.519-1.357-0.783-2.035c-0.291-0.706-0.651-1.478-0.985-2.208c-1.64-3.45-4.088-7.469-7.736-10.817
							c0.014-0.118,0.021-0.235,0.034-0.352c-0.153-0.018-0.305-0.042-0.458-0.061c-1.068,7.243-3.091,18.719-6.313,28.617
							c0.32-0.839,0.629-1.678,0.923-2.516C377.789,132.484,378.071,133.796,378.285,135.159z"/>
						<path style="fill:#4C7270;" d="M377.06,220.515h15.349c-0.438-1.438-0.791-2.948-1.059-4.521
							c-1.035-6.124-0.924-12.931-0.365-19.945c-5.147,1.607-10.428,2.712-15.737,3.71c-0.025,1.318-0.035,2.642-0.021,3.973
							c0.058,4.918,0.422,9.951,1.451,15.057C376.794,219.362,376.924,219.938,377.06,220.515z"/>
					</g>
					<path style="fill:#F09B7C;" d="M401.901,200.562l-10.952-2.459c-29.201,2.014-1.51,3.021-1.51,3.021
						c-35.745,8.559,0.504,3.524,0.504,3.524c-32.221,12.586,1.007,3.524,1.007,3.524c-29.201,13.09,1.007,2.517,1.007,2.517
						s4.046,1.549,10.143,3.729C402.163,209.803,401.973,205.183,401.901,200.562z"/>
				</g>
				<g>
					<path style="fill:#FB6A5A;" d="M289.053,75.023l-7.169,12.281l-4.363,2.855l4.135-0.667l1.779,4.002l0.622-5.514
						c0,0,4.509-9.693,6.663-10.707C292.873,76.259,289.053,75.023,289.053,75.023z"/>
					<path style="fill:#5D8483;" d="M303.924,44.746c0,0-12.213-2.971-18.815,13.203s1.32,21.125,4.951,22.446
						c3.631,1.32,22.116-10.893,25.086-15.844c2.971-4.951-1.32-11.883-1.32-11.883L303.924,44.746z"/>
					<path style="fill:#251E28;" d="M302.274,65.872c0,1.303-1.056,2.359-2.359,2.359s-2.359-1.056-2.359-2.359
						c0-1.303,1.056-2.359,2.359-2.359S302.274,64.569,302.274,65.872z"/>
					<circle style="fill:#251E28;" cx="285.061" cy="58.94" r="2.359"/>
				</g>
			</g>
			<g>
				<path style="fill:#F09B7C;" d="M438.778,185.013l24.166-9.566c0,0,6.545,46.821-5.538,52.359
					c-9.435,4.324-65.449-17.117-65.449-17.117s-30.207,10.573-1.007-2.517c0,0-33.228,9.062-1.007-3.524
					c0,0-36.249,5.035-0.504-3.524c0,0-27.69-1.007,1.51-3.021l49.339,11.076L438.778,185.013z"/>
				<path style="fill:#DA856B;" d="M463.944,184.688c-0.477-5.495-1.001-9.24-1.001-9.24l-24.166,9.566l0.445,7.126
					C447.54,189.942,455.782,187.468,463.944,184.688z"/>
				<path style="fill:#6F95BC;" d="M436.525,188.537l28.697-8.055c0,0-3.65-28.823-18.25-34.361
					C432.371,140.583,425.952,158.833,436.525,188.537z"/>
			</g>
		</g>
		<g>
			<g>
				<path style="fill:#F09B7C;" d="M413.366,118.557l-3.902,11.328l-5.79-1.888c0,0,3.65,25.425,32.85,12.838l-6.042-3.147
					l11.076-28.194L413.366,118.557z"/>
				<path style="fill:#DA856B;" d="M434.146,128.364l7.413-18.869l-28.193,9.062l-3.902,11.328
					C417.152,132.589,424.582,132.094,434.146,128.364z"/>
				<path style="fill:#F09B7C;" d="M439.05,63.154c0,0-22.756-11.071-33.827,17.836c-5.279,13.783-9.438,25.456-5.955,34.043
					c3.822,9.422,20.448,12.516,33.732,10.069C452.132,121.578,469.187,71.15,439.05,63.154z"/>
				<path style="fill:#955450;" d="M435.231,125.16l5.696-12.878c0,0,5.201,3.467,8.668-4.21c3.467-7.677-0.743-12.383-4.458-8.42
					c-3.715,3.963-4.21,7.925-4.21,7.925l-3.219-0.991l3.715-10.649c0,0-12.383-2.972-11.144-13.869
					c1.238-10.897,0.248-14.116-3.467-16.097c-3.715-1.981-4.705,1.486-4.705,1.486s0-5.944-5.696-2.724
					c-5.696,3.219-12.135,19.069-12.135,19.069s-7.677-10.401-0.991-22.041c6.687-11.64,19.565-14.612,26.747-8.173
					c0,0,16.593-1.486,23.775,7.677c7.182,9.163,11.887,22.289,7.182,37.891l-4.953,0.248
					C456.034,99.403,448.109,117.482,435.231,125.16z"/>
			</g>
			<g>
				<g>
					<path style="fill:#B66B56;" d="M417.151,84.951c-0.139,0.864-0.368,1.708-0.629,2.529c-0.118,0.419-0.268,0.821-0.42,1.224
						l-0.455,1.21c-0.349,0.781-0.677,1.577-1.051,2.347c-0.368,0.774-0.778,1.523-1.19,2.272c-0.811,1.506-1.753,2.93-2.703,4.347
						c-0.487,0.701-1.005,1.38-1.528,2.055c-0.545,0.661-1.058,1.342-1.628,1.983l-0.328-1.184c0.874,0.509,1.744,1.027,2.599,1.575
						c0.86,0.539,1.708,1.104,2.539,1.705c-0.995-0.248-1.974-0.533-2.94-0.842c-0.97-0.302-1.927-0.633-2.879-0.973l-0.757-0.27
						l0.429-0.914c0.362-0.773,0.781-1.506,1.168-2.26c0.402-0.743,0.836-1.466,1.253-2.197c0.824-1.468,1.748-2.874,2.629-4.303
						c0.907-1.416,1.845-2.81,2.817-4.195c0.489-0.689,0.972-1.385,1.492-2.063C416.072,86.306,416.6,85.635,417.151,84.951z"/>
				</g>
				<g>
					<path style="fill:#251E28;" d="M431.078,96.981c0,0,0.025-0.236,0.046-0.635c0.022-0.397,0.04-0.96-0.01-1.593
						c-0.03-0.315-0.08-0.649-0.165-0.971c-0.074-0.329-0.223-0.636-0.389-0.913c-0.068-0.151-0.203-0.252-0.29-0.387
						c-0.111-0.118-0.249-0.211-0.361-0.33l-0.44-0.267l-0.503-0.212l-0.58-0.158c-0.193-0.033-0.302-0.023-0.458-0.055
						c-0.162,0.009-0.322,0.017-0.48,0.026c-0.15,0.051-0.314,0.056-0.461,0.125c-0.295,0.119-0.6,0.264-0.855,0.482
						c-0.262,0.203-0.501,0.441-0.714,0.674c-0.418,0.475-0.741,0.937-0.962,1.268c-0.222,0.332-0.344,0.536-0.344,0.536
						s-0.018-0.237,0.027-0.649c0.049-0.41,0.153-1.003,0.459-1.675c0.152-0.336,0.343-0.702,0.637-1.041
						c0.27-0.354,0.646-0.69,1.107-0.948c0.221-0.145,0.493-0.211,0.75-0.312c0.268-0.061,0.543-0.107,0.83-0.126
						c0.286,0.012,0.63,0.02,0.877,0.07l0.328,0.081l0.164,0.041l0.082,0.02l0.041,0.01l0.089,0.026l0.023,0.01l0.737,0.331
						c0.236,0.142,0.459,0.314,0.681,0.473c0.411,0.382,0.758,0.829,0.953,1.318c0.208,0.481,0.293,0.974,0.298,1.416
						c0.028,0.445-0.04,0.852-0.118,1.211c-0.158,0.72-0.428,1.258-0.634,1.616C431.233,96.801,431.078,96.981,431.078,96.981z"/>
				</g>
				<g>
					<path style="fill:#251E28;" d="M425.552,83.429c0,0,0.654-0.661,1.923-1.151c0.63-0.249,1.408-0.46,2.277-0.519
						c0.432-0.037,0.89-0.018,1.352,0.02c0.46,0.075,0.935,0.129,1.388,0.299l0.677,0.241c0.216,0.106,0.425,0.224,0.633,0.337
						c0.431,0.201,0.774,0.53,1.12,0.809c0.361,0.266,0.591,0.645,0.854,0.944c0.269,0.3,0.416,0.657,0.576,0.96
						c0.152,0.308,0.306,0.576,0.364,0.854c0.081,0.264,0.13,0.502,0.173,0.693c0.081,0.385,0.106,0.604,0.106,0.604
						s-0.181-0.151-0.459-0.414c-0.137-0.133-0.305-0.289-0.475-0.476c-0.16-0.195-0.415-0.353-0.631-0.562
						c-0.235-0.193-0.454-0.428-0.743-0.603c-0.285-0.176-0.524-0.431-0.848-0.579c-0.312-0.162-0.599-0.376-0.942-0.498
						c-0.165-0.073-0.332-0.142-0.494-0.225l-0.523-0.167c-0.338-0.145-0.713-0.184-1.066-0.288
						c-0.364-0.058-0.726-0.131-1.086-0.169c-0.72-0.088-1.419-0.106-2.038-0.13C426.461,83.4,425.552,83.429,425.552,83.429z"/>
				</g>
				<g>
					<path style="fill:#251E28;" d="M412.199,89.68c0,0,0.025-0.236,0.046-0.635c0.022-0.397,0.04-0.96-0.01-1.593
						c-0.03-0.315-0.08-0.649-0.165-0.972c-0.074-0.329-0.223-0.636-0.389-0.913c-0.068-0.151-0.203-0.253-0.29-0.388
						c-0.111-0.118-0.249-0.211-0.361-0.33l-0.44-0.267l-0.503-0.212l-0.58-0.158c-0.193-0.033-0.302-0.023-0.458-0.055
						c-0.162,0.009-0.322,0.017-0.48,0.026c-0.15,0.051-0.314,0.056-0.461,0.125c-0.295,0.119-0.6,0.264-0.855,0.482
						c-0.262,0.203-0.501,0.441-0.714,0.674c-0.418,0.475-0.741,0.937-0.962,1.268c-0.222,0.332-0.344,0.536-0.344,0.536
						s-0.018-0.237,0.027-0.649c0.049-0.41,0.153-1.003,0.459-1.675c0.152-0.336,0.343-0.702,0.637-1.041
						c0.27-0.354,0.646-0.69,1.107-0.948c0.221-0.145,0.493-0.211,0.75-0.312c0.268-0.061,0.543-0.107,0.83-0.126
						c0.286,0.012,0.63,0.02,0.877,0.07l0.328,0.081l0.164,0.04l0.082,0.02l0.041,0.01l0.089,0.026l0.023,0.01l0.737,0.331
						c0.236,0.142,0.459,0.314,0.681,0.472c0.411,0.382,0.758,0.829,0.953,1.318c0.209,0.481,0.293,0.974,0.298,1.416
						c0.028,0.445-0.039,0.852-0.118,1.211c-0.158,0.72-0.428,1.258-0.634,1.616C412.354,89.501,412.199,89.68,412.199,89.68z"/>
				</g>
				<g>
					<path style="fill:#251E28;" d="M406.672,76.129c0,0,0.654-0.661,1.923-1.151c0.63-0.249,1.408-0.46,2.277-0.52
						c0.432-0.037,0.89-0.018,1.352,0.02c0.461,0.075,0.935,0.129,1.388,0.299l0.677,0.241c0.216,0.106,0.425,0.224,0.633,0.337
						c0.431,0.201,0.774,0.53,1.12,0.809c0.361,0.266,0.591,0.645,0.854,0.944c0.269,0.3,0.416,0.657,0.576,0.96
						c0.152,0.308,0.306,0.576,0.364,0.854c0.081,0.264,0.13,0.502,0.173,0.693c0.081,0.385,0.106,0.604,0.106,0.604
						s-0.181-0.151-0.459-0.414c-0.137-0.133-0.305-0.289-0.475-0.476c-0.16-0.195-0.415-0.353-0.631-0.562
						c-0.235-0.193-0.454-0.428-0.743-0.603c-0.285-0.176-0.524-0.431-0.848-0.579c-0.312-0.162-0.599-0.376-0.942-0.498
						c-0.165-0.073-0.332-0.142-0.494-0.225l-0.523-0.167c-0.338-0.145-0.713-0.184-1.066-0.288
						c-0.364-0.058-0.726-0.131-1.086-0.169c-0.72-0.088-1.419-0.106-2.038-0.131C407.581,76.1,406.672,76.129,406.672,76.129z"/>
				</g>
				<path style="fill:#FFFFFF;" d="M404.807,105.97l19.887,4.028C424.693,109.998,410.345,116.795,404.807,105.97z"/>
			</g>
		</g>
	</g>
	<g>
		<ellipse style="opacity:0.2;fill:#352C38;" cx="165.497" cy="474.422" rx="142.646" ry="13.532"/>
		<g>
			<g>
				<path style="fill:#955450;" d="M105.173,321.331l25.633-13.819c0,0,14.488,24.518,17.386,26.97
					c-0.446,0.223,44.133,5.572,44.133,5.572s10.922-6.464,2.675,0.892c0,0,24.741,0.669,3.566,3.121c0,0,24.073,2.229,0.446,3.121
					c0,0,21.621,1.783-0.446,2.675c0,0,18.5,0.892-1.337,2.898c-20.037,2.026-44.11,7.624-60.182,5.572
					C126.571,356.994,105.173,321.331,105.173,321.331z"/>
			</g>
			<g style="opacity:0.3;">
				<path style="fill:#352C38;" d="M105.173,321.331l25.633-13.819c0,0,14.488,24.518,17.386,26.97
					c-0.446,0.223,44.133,5.572,44.133,5.572s10.922-6.464,2.675,0.892c0,0,24.741,0.669,3.566,3.121c0,0,24.073,2.229,0.446,3.121
					c0,0,21.621,1.783-0.446,2.675c0,0,18.5,0.892-1.337,2.898c-20.037,2.026-44.11,7.624-60.182,5.572
					C126.571,356.994,105.173,321.331,105.173,321.331z"/>
			</g>
		</g>
		<g>
			<g>
				<path style="fill:#76413B;" d="M106.258,430.392c0,0-35.014-4.168-71.486,27.667c0,0,37.144,42.398,14.904,5.433
					c0,0,56.58-0.251,68.661-8.127S106.258,430.392,106.258,430.392z"/>
				<path style="fill:#5E87A9;" d="M103.336,355.032c0,0-31.756,3.571-49.346,29.087c-17.59,25.516,6.241,46.808,63.134,49.312
					c0,0-14.803-9.08-42.802-3.016c0,0-5.636,22.199,11.205,40.004c0,0,67.204-4.974,71.536-29.49
					c4.332-24.516-48.106-58.367-48.106-58.367l5.381,19.768c0,0,10.941,0.304,18.413-5.875
					C132.751,396.455,120.81,382.892,103.336,355.032z"/>
				<path style="fill:#5E87A9;" d="M101.325,377.122c8.148,4.855,16.226,9.735,23.01,16.445c0.356,0.352,0.709,0.708,1.062,1.064
					c1.482,1.195,3.003,2.45,4.546,3.77c0.969-0.565,1.914-1.207,2.808-1.946c0,0-11.941-13.563-29.415-41.423
					c0,0-20.423-4.806-37.365,9.145C78.516,364.721,90.666,370.771,101.325,377.122z"/>
				<path style="fill:#5E87A9;" d="M116.985,433.352c-0.941-0.538-7.268-3.93-18.648-4.813c5.732,1.949,11.737,3.53,17.841,4.701
					C116.445,433.277,116.717,433.314,116.985,433.352z"/>
				<path style="fill:#352C38;" d="M38.834,454.217l-4.061,3.841c0,0,39.736,47.641,17.374,9.608
					C52.146,467.667,52.83,475.898,38.834,454.217z"/>
			</g>
			<g>
				<path style="fill:#955450;" d="M127.768,407.746c0,0-28.085,23.404-30.091,73.555c0,0,58.398,2.229,14.711-7.355
					c0,0,40.121-42.796,42.796-57.507C157.859,401.728,127.768,407.746,127.768,407.746z"/>
				<path style="fill:#76413B;" d="M116.106,455.964c2.392,1.972,4.837,3.879,7.329,5.719c12.087-13.81,29.993-35.583,31.75-45.244
					c2.675-14.711-27.416-8.693-27.416-8.693s-14.179,11.835-23.107,36.676C107.889,448.781,112.011,452.588,116.106,455.964z"/>
				<path style="fill:#6F95BC;" d="M68.924,356.258c0,0-26.805,16.553-20.118,47.981c6.687,31.428,54.221,22.899,88.993-2.511
					c0,0-17.386,4.681-32.766,30.091c0,0,12.705,20.061,38.115,20.061c0,0,44.133-54.164,28.753-74.893
					c-15.38-20.729-78.236-5.349-78.236-5.349l18.723,10.03c0,0,8.024-8.024,8.693-18.054
					C121.081,363.613,102.358,362.945,68.924,356.258z"/>
				<path style="fill:#5E87A9;" d="M84.129,373.51c9.462-2.678,18.893-5.286,28.78-5.615c0.519-0.017,1.039-0.029,1.558-0.042
					c1.957-0.265,6.582-0.917,8.676-1.139c0.264-1.133-2.142-1.9-2.062-3.101c0,0-18.723-0.669-52.157-7.356
					c0,0-18.855,11.967-21.121,35.192C57.151,382.388,71.752,377.013,84.129,373.51z"/>
				<path style="fill:#5E87A9;" d="M137.64,401.775c-1.076,0.326-8.138,2.674-16.911,10.617c5.552-2.929,11.021-6.325,16.252-10.09
					C137.198,402.129,137.42,401.951,137.64,401.775z"/>
				<path style="fill:#352C38;" d="M97.677,475.507v5.795c0,0,64.194,4.012,19.615-6.241
					C117.292,475.061,123.979,480.41,97.677,475.507z"/>
			</g>
		</g>
		<g>
			<g>
				<path style="fill:#352C38;" d="M126.776,234.645c0,0,14.711,8.581,20.595,7.355c5.884-1.226-0.49-5.884-0.49-5.884
					s13.73,7.846,15.937,1.471c2.207-6.375-1.226-18.389-15.447-21.821c0,0,9.072,5.884,10.543,2.207
					c1.471-3.678-27.706-15.692-45.604-3.433c-17.898,12.259-19.615,24.764-21.331,37.268
					c-1.716,12.504-35.797,12.995-17.653,38.984c0,0-17.09,4.07-8.415,18.991c8.359,14.377,30.236,1.114,30.236,1.114l41.313,6.911
					c0,0,26.792-3.299,25.076-23.404c-1.293-15.148-18.578-16.361-16.617-26.169C146.882,258.428,126.776,234.645,126.776,234.645z"
					/>
				<path style="fill:#955450;" d="M129.964,295.696l0.736-11.524c0,0,6.855,4.356,14.711,2.942
					c12.259-2.207,24.361-36.105,6.62-53.205c-20.35-19.615-45.604,21.821-45.604,21.821l4.413,30.158
					C110.84,285.889,128.002,319.724,129.964,295.696z"/>
				<path style="opacity:0.2;fill:#352C38;" d="M114.448,268.68h-6.127l2.518,17.209c0,0,17.163,33.835,19.124,9.807l0.733-11.484
					C124.426,280.034,119.041,274.749,114.448,268.68z"/>
			</g>
			<g>
				<g>
					<path style="fill:#633431;" d="M146.324,272.171c1.726-1.046,3.506-1.964,5.307-2.833l-0.315,0.602
						c-0.365-1.429-0.713-2.862-1.02-4.303c-0.159-0.719-0.319-1.439-0.456-2.163l-0.421-2.17c-0.263-1.45-0.506-2.905-0.711-4.367
						c-0.203-1.463-0.381-2.931-0.479-4.415c0.503,1.4,0.928,2.817,1.326,4.239c0.396,1.422,0.756,2.853,1.094,4.287l0.482,2.157
						c0.164,0.718,0.305,1.441,0.447,2.164c0.294,1.444,0.548,2.896,0.786,4.351l0.075,0.459l-0.39,0.144
						C150.173,271.015,148.276,271.656,146.324,272.171z"/>
				</g>
				<g>
					<path style="fill:#251E28;" d="M133.801,254.268c0,0,0.059,0.258,0.181,0.686c0.121,0.427,0.305,1.027,0.587,1.676
						c0.146,0.321,0.319,0.655,0.526,0.964c0.099,0.16,0.212,0.31,0.344,0.441c0.118,0.146,0.255,0.265,0.392,0.385
						c0.123,0.139,0.305,0.195,0.448,0.303c0.161,0.082,0.342,0.128,0.501,0.217l0.56,0.126l0.609,0.033l0.669-0.036
						c0.217-0.029,0.328-0.088,0.503-0.112c0.159-0.067,0.33-0.139,0.498-0.202c0.141-0.106,0.316-0.168,0.442-0.298
						c0.263-0.237,0.533-0.499,0.723-0.822c0.203-0.309,0.368-0.646,0.509-0.969c0.269-0.652,0.442-1.257,0.555-1.686
						c0.114-0.43,0.168-0.69,0.168-0.69s0.104,0.243,0.207,0.694c0.097,0.45,0.202,1.113,0.123,1.932
						c-0.039,0.409-0.107,0.864-0.294,1.328c-0.156,0.47-0.43,0.963-0.827,1.396c-0.183,0.229-0.442,0.4-0.675,0.601
						c-0.258,0.165-0.532,0.313-0.829,0.432c-0.307,0.089-0.672,0.198-0.95,0.24l-0.375,0.038l-0.188,0.019l-0.094,0.009
						l-0.047,0.005l-0.103,0.005l-0.028-0.003l-0.895-0.091c-0.299-0.069-0.597-0.161-0.889-0.247
						c-0.577-0.243-1.091-0.609-1.48-1.045c-0.399-0.426-0.665-0.917-0.831-1.381c-0.191-0.459-0.267-0.912-0.314-1.319
						c-0.094-0.816-0.004-1.481,0.083-1.933C133.702,254.513,133.801,254.268,133.801,254.268z"/>
				</g>
				<g>
					<path style="fill:#251E28;" d="M151.241,253.716c0,0,0.098,0.24,0.281,0.635c0.181,0.395,0.448,0.949,0.809,1.544
						c0.186,0.294,0.401,0.596,0.638,0.878c0.124,0.137,0.242,0.284,0.39,0.393c0.137,0.125,0.273,0.244,0.428,0.333
						c0.289,0.219,0.635,0.296,0.969,0.394c0.177,0.026,0.362,0.029,0.543,0.053l0.58-0.059l0.636-0.142
						c0.176-0.069,0.282-0.135,0.438-0.187c0.281-0.2,0.585-0.371,0.788-0.667c0.115-0.135,0.207-0.285,0.294-0.448
						c0.103-0.15,0.17-0.325,0.24-0.495c0.133-0.342,0.233-0.697,0.313-1.036c0.144-0.68,0.211-1.292,0.251-1.725
						c0.041-0.434,0.054-0.693,0.054-0.693s0.137,0.219,0.306,0.638c0.164,0.419,0.371,1.039,0.438,1.836
						c0.033,0.398,0.046,0.843-0.039,1.319c-0.077,0.473-0.202,1.001-0.513,1.489c-0.279,0.5-0.712,0.96-1.234,1.301
						c-0.285,0.147-0.616,0.307-0.897,0.41l-0.356,0.096l-0.178,0.048l-0.089,0.024l-0.045,0.012l-0.102,0.022l-0.028,0.002
						l-0.892,0.048c-0.305-0.038-0.611-0.065-0.908-0.13c-0.597-0.164-1.147-0.466-1.564-0.85c-0.449-0.359-0.727-0.821-0.959-1.238
						c-0.234-0.421-0.369-0.844-0.47-1.23c-0.2-0.773-0.213-1.426-0.198-1.876C151.185,253.968,151.241,253.716,151.241,253.716z"/>
				</g>
				<g>
					<path style="fill:#251E28;" d="M128.924,248.128c0,0,0.613-0.915,1.913-1.894c0.33-0.233,0.678-0.512,1.09-0.731
						c0.399-0.244,0.832-0.487,1.308-0.681c0.463-0.221,0.973-0.392,1.491-0.558c0.53-0.127,1.07-0.268,1.623-0.348
						c0.56-0.04,1.115-0.121,1.672-0.077c0.556-0.006,1.097,0.072,1.614,0.193c0.258,0.057,0.514,0.094,0.757,0.166
						c0.236,0.093,0.468,0.183,0.693,0.272c0.221,0.09,0.437,0.177,0.645,0.261c0.2,0.102,0.38,0.23,0.558,0.336
						c0.352,0.221,0.672,0.418,0.927,0.631c0.25,0.223,0.453,0.433,0.62,0.6c0.331,0.339,0.501,0.542,0.501,0.542
						s-0.268-0.077-0.705-0.228c-0.217-0.077-0.479-0.165-0.764-0.283c-0.297-0.095-0.648-0.157-1.002-0.266
						c-0.353-0.118-0.752-0.177-1.166-0.241c-0.205-0.034-0.415-0.07-0.63-0.106c-0.22-0.006-0.44-0.027-0.665-0.041
						c-0.225-0.012-0.45-0.042-0.68-0.041c-0.232,0.018-0.465,0.026-0.7,0.024c-0.469-0.023-0.946,0.077-1.422,0.124
						c-0.478,0.048-0.954,0.153-1.422,0.242c-0.458,0.143-0.937,0.193-1.374,0.352c-0.443,0.134-0.881,0.252-1.288,0.398
						c-0.412,0.131-0.793,0.283-1.16,0.402C129.927,247.715,128.924,248.128,128.924,248.128z"/>
				</g>
				<g>
					<path style="fill:#251E28;" d="M149.043,247.828c0,0,0.268-0.848,1.122-1.853c0.227-0.235,0.451-0.523,0.756-0.754
						c0.285-0.255,0.608-0.507,0.979-0.72c0.353-0.239,0.782-0.398,1.205-0.57c0.449-0.117,0.901-0.268,1.388-0.274
						c0.24-0.007,0.48-0.041,0.718-0.017c0.239,0.026,0.475,0.066,0.708,0.101c0.238,0.021,0.458,0.095,0.671,0.184
						c0.212,0.083,0.422,0.166,0.628,0.246c0.394,0.189,0.725,0.453,1.049,0.669c0.32,0.224,0.54,0.525,0.773,0.76
						c0.232,0.237,0.423,0.468,0.551,0.706c0.143,0.224,0.253,0.43,0.344,0.595c0.179,0.333,0.264,0.529,0.264,0.529
						s-0.199-0.104-0.518-0.295c-0.157-0.097-0.35-0.21-0.552-0.351c-0.197-0.15-0.453-0.27-0.715-0.408
						c-0.27-0.125-0.529-0.312-0.835-0.424c-0.309-0.103-0.61-0.257-0.933-0.35c-0.334-0.047-0.653-0.197-0.997-0.198
						c-0.17-0.012-0.341-0.021-0.511-0.044c-0.171-0.016-0.344,0.024-0.516,0.028c-0.347-0.014-0.687,0.107-1.033,0.154
						c-0.334,0.116-0.682,0.184-1.001,0.332c-0.325,0.128-0.646,0.257-0.941,0.415c-0.303,0.139-0.572,0.314-0.844,0.446
						c-0.26,0.157-0.499,0.3-0.711,0.428c-0.214,0.135-0.401,0.252-0.555,0.349C149.223,247.712,149.043,247.828,149.043,247.828z"
						/>
				</g>
				<path style="fill:#FFFFFF;" d="M136.127,274.678l15.045-0.167C151.172,274.511,148.423,279.693,136.127,274.678z"/>
			</g>
		</g>
		<g>
			<g>
				<path style="fill:#765E69;" d="M299.898,428.152c0,0,4.949,12.333,14.848,16.738c9.899,4.405,22.497,2.643,20.697-7.928
					s-8.099-14.095-16.198-16.297c0,0,4.499-3.083,13.948,1.321c9.449,4.405,18.898,18.5,9.899,29.512
					c-8.999,11.012-20.247,8.369-30.146,3.964c-9.899-4.405-14.848-2.643-20.697,1.762
					C286.4,461.628,299.898,428.152,299.898,428.152z"/>
				<path style="fill:#5E4753;" d="M292.249,457.223c4.527-3.409,8.525-5.22,14.685-3.83c0.198-5.395-0.573-11.11-1.703-16.317
					c-3.554-4.497-5.333-8.925-5.333-8.925S286.4,461.628,292.249,457.223z"/>
			</g>
			<g>
				<path style="fill:#5E4753;" d="M172.264,373.074c0,0,2.961,15.205,13.62,22.946c10.659,7.741,8.883,14.099,12.436,24.881
					c3.553,10.782,7.106,31.24,3.257,35.663c-3.849,4.423-10.363,1.935-10.659,7.464c-0.296,5.529,11.844,2.212,14.508,2.212
					c2.665,0,3.257-1.106,3.553-7.464c0.296-6.359,5.034-9.4,4.441-14.652c-0.592-5.253-3.257-34.281-1.776-40.363
					c1.48-6.082,9.475-16.588,5.33-27.646C212.829,365.057,174.337,355.381,172.264,373.074z"/>
				<path style="fill:#5E4753;" d="M266.152,406.129c0,0-38.245-5.726-38.245,20.262c0,25.988,35.096,31.273,35.096,31.273
					s-20.247-1.321-26.097-1.762c-5.849-0.441-14.398,4.405-13.048,8.809c1.35,4.405,22.947-0.881,33.746-0.881
					c10.799,0,24.297,3.524,20.247-4.845c0,0-0.45-9.25,8.549-14.976C295.399,438.283,287.3,410.534,266.152,406.129z"/>
			</g>
			<g>
				<path style="fill:#765E69;" d="M170.625,362.522c0,0,0.9,44.047,27.447,53.297c26.547,9.25,34.196,7.048,54.443,25.107
					c20.247,18.059,26.997,26.428,46.794,10.131c0,0,8.099-18.793-6.749-39.496c-14.848-20.702-30.146-34.797-44.095-42.285
					c-13.948-7.488-51.594-35.825-55.493-47.865C190.113,312.584,169.821,346.997,170.625,362.522z"/>
				<path style="fill:#765E69;" d="M276.951,415.379c0,0-38.245-5.726-38.245,20.262c0,25.988,35.096,31.273,35.096,31.273
					s-20.247-1.321-26.097-1.762c-5.849-0.44-14.398,4.405-13.048,8.81c1.35,4.405,22.947-0.881,33.746-0.881
					c10.799,0,24.297,3.524,20.247-4.845c0,0-0.45-9.25,8.549-14.976C306.197,447.533,298.098,419.783,276.951,415.379z"/>
				<path style="fill:#765E69;" d="M181.263,377.792c0,0,3,16.151,13.798,24.373c10.799,8.222,8.999,14.976,12.598,26.428
					c3.6,11.452,7.199,33.182,3.299,37.88c-3.9,4.698-10.499,2.056-10.799,7.928c-0.3,5.873,11.999,2.349,14.698,2.349
					c2.7,0,3.299-1.175,3.6-7.928c0.3-6.754,5.099-9.984,4.499-15.563c-0.6-5.579-3.299-36.412-1.8-42.872
					c1.5-6.46,9.599-17.619,5.399-29.365C222.358,369.276,183.363,358.998,181.263,377.792z"/>
				<path style="fill:#FFA55B;" d="M169.451,360.901c0,0,15.316,6.047,39.612-22.143l-6.749-5.286c0,0-5.849,10.131-33.296,23.785
					L169.451,360.901z"/>
			</g>
		</g>
		<g>
			<g>
				<path style="fill:#FB6A5A;" d="M66.695,355.366c0,0,29.868,13.151,54.832,11.368c0,0,24.295-22.289,22.958-37.446
					c-1.337-15.157-14.265-37.001-14.265-37.001s0.626,2.943-4.278,3.389c-4.904,0.446-15.783-13.642-15.783-13.642
					s-24.437-2.352-36.109,31.205C66.918,333.745,66.695,355.366,66.695,355.366z"/>
				<path style="opacity:0.2;fill:#211B23;" d="M143.996,325.792c-5.951,6.371-15.213,9.897-24.496,11.132
					c-9.512,1.265-19.971,1.076-29.208-1.732c-7.307-2.221-13.649-6.652-19.218-11.884c-4.22,16.941-4.379,32.057-4.379,32.057
					s29.868,13.151,54.832,11.368c0,0,24.295-22.29,22.958-37.446C144.385,328.157,144.214,326.986,143.996,325.792z"/>
			</g>
			<g>
				<g>
					<path style="fill:#955450;" d="M89.653,329.733l25.633-13.819c0,0,14.488,24.518,17.386,26.97
						c-0.446,0.223,44.133,5.572,44.133,5.572s10.922-6.464,2.675,0.892c0,0,24.741,0.669,3.566,3.121c0,0,24.073,2.229,0.446,3.12
						c0,0,21.621,1.783-0.446,2.675c0,0,18.5,0.892-1.337,2.898c-20.037,2.026-44.11,7.624-60.182,5.572
						C111.051,365.396,89.653,329.733,89.653,329.733z"/>
				</g>
				<path style="opacity:0.2;fill:#352C38;" d="M116.654,318.212c-0.853-1.428-1.368-2.298-1.368-2.298l-25.633,13.819
					c0,0,0.181,0.301,0.507,0.834C98.968,326.404,107.681,322.002,116.654,318.212z"/>
			</g>
			<g>
				<path style="fill:#352C38;" d="M65.58,305.772c-6.13-12.504,7.746-14.979,7.746-14.979
					c-18.144-25.99,15.937-26.48,17.653-38.984c1.716-12.504,3.433-25.009,21.331-37.268c17.898-12.259,47.075-0.245,45.604,3.433
					c-1.471,3.678-10.543-2.207-10.543-2.207c14.221,3.433,17.653,15.447,15.447,21.821c-2.207,6.375-15.937-1.471-15.937-1.471
					s7.846,4.413-1.471,6.865c-5.813,1.53-19.37-5.885-19.37-5.885s1.471,14.956-7.11,18.634c0,0,2.942,6.13-0.245,6.865
					c-3.187,0.736-3.923-7.355-3.923-7.355s-1.919-4.846-5.884-1.962c-2.697,1.962-3.923,12.995,5.639,12.259
					c0,0,13.485,21.086,0.981,25.744c-12.504,4.659-22.644-5.477-35.541,9.808C70.93,311.79,65.58,305.772,65.58,305.772z"/>
			</g>
		</g>
		<g>
			<g>
				<g>
					<path style="fill:#FB6A5A;" d="M159.378,349.787c0,0-2.114,9.363,3.322,9.363c5.437,0,7.249-1.51,6.645-8.457
						c-0.604-6.947-4.833-3.02-4.833-3.02L159.378,349.787z"/>
					<path style="fill:#765E69;" d="M184.749,306.897l-21.747-2.416c0,0-11.78,13.29-11.478,25.372
						c0.302,12.082,3.918,21.747,9.363,21.747c4.229,0,3.423-5.938,3.625-3.927c1.208,12.082,17.518,4.606,22.955-5.135
						c7.249-12.988,9.665-14.196,9.665-14.196S190.488,306.293,184.749,306.897z"/>
				</g>
				<g>
					<path style="fill:#352C38;" d="M164.512,347.673c0,0-6.947-5.739-5.437-10.27c1.51-4.531,13.29-3.02,14.8,2.114
						C175.386,344.652,167.533,347.975,164.512,347.673z"/>
					<g>
						<path style="fill:#251E28;" d="M163.158,329.322c0,0-0.062-0.271-0.19-0.719c-0.127-0.447-0.32-1.076-0.615-1.756
							c-0.153-0.337-0.334-0.687-0.551-1.01c-0.104-0.168-0.223-0.324-0.361-0.462c-0.124-0.153-0.267-0.277-0.411-0.403
							c-0.129-0.145-0.32-0.204-0.469-0.318c-0.169-0.086-0.358-0.134-0.527-0.223l-0.587-0.127l-0.636-0.043l-0.701,0.046
							c-0.226,0.036-0.342,0.089-0.527,0.113c-0.176,0.07-0.35,0.139-0.523,0.207c-0.148,0.111-0.331,0.176-0.464,0.312
							c-0.139,0.128-0.283,0.246-0.404,0.401c-0.135,0.138-0.255,0.291-0.354,0.461c-0.213,0.324-0.386,0.677-0.533,1.015
							c-0.282,0.684-0.463,1.316-0.581,1.766c-0.119,0.451-0.176,0.723-0.176,0.723s-0.109-0.255-0.217-0.727
							c-0.101-0.471-0.212-1.166-0.129-2.024c0.041-0.428,0.113-0.905,0.308-1.391c0.164-0.493,0.451-1.009,0.867-1.462
							c0.192-0.24,0.463-0.419,0.707-0.63c0.271-0.172,0.557-0.328,0.867-0.457c0.321-0.095,0.703-0.217,0.996-0.255l0.393-0.035
							l0.197-0.018l0.098-0.009l0.049-0.004l0.108-0.005l0.03,0.002l0.939,0.087c0.315,0.067,0.626,0.172,0.931,0.264
							c0.602,0.262,1.143,0.64,1.549,1.098c0.418,0.446,0.697,0.961,0.871,1.447c0.2,0.481,0.28,0.956,0.329,1.382
							c0.099,0.855,0.004,1.552-0.087,2.025C163.261,329.065,163.158,329.322,163.158,329.322z"/>
					</g>
					<g>
						<path style="fill:#251E28;" d="M183.672,333.274c0,0,0.009-0.277-0.001-0.743c-0.009-0.465-0.036-1.122-0.148-1.854
							c-0.062-0.364-0.149-0.749-0.276-1.118c-0.057-0.189-0.133-0.37-0.231-0.538c-0.081-0.18-0.188-0.336-0.295-0.495
							c-0.088-0.173-0.257-0.279-0.373-0.426c-0.141-0.126-0.312-0.221-0.452-0.35l-0.535-0.273l-0.604-0.204l-0.689-0.134
							c-0.228-0.022-0.354-0.001-0.538-0.025c-0.188,0.023-0.374,0.045-0.558,0.067c-0.171,0.07-0.365,0.086-0.528,0.184
							c-0.167,0.088-0.337,0.166-0.492,0.285c-0.165,0.099-0.321,0.217-0.46,0.356c-0.288,0.259-0.546,0.556-0.774,0.846
							c-0.447,0.589-0.783,1.155-1.011,1.56c-0.23,0.406-0.354,0.654-0.354,0.654s-0.041-0.274-0.024-0.759
							c0.022-0.482,0.092-1.181,0.391-1.99c0.149-0.404,0.339-0.847,0.652-1.267c0.284-0.435,0.693-0.861,1.211-1.193
							c0.247-0.183,0.555-0.287,0.845-0.429c0.306-0.097,0.622-0.176,0.955-0.221c0.334-0.01,0.736-0.031,1.028,0.007l0.389,0.066
							l0.195,0.033l0.098,0.017l0.049,0.008l0.106,0.023l0.028,0.01l0.886,0.323c0.288,0.145,0.562,0.326,0.833,0.492
							c0.515,0.407,0.942,0.91,1.218,1.456c0.291,0.538,0.429,1.107,0.474,1.621c0.071,0.516,0.027,0.995-0.034,1.421
							c-0.122,0.852-0.391,1.501-0.6,1.936C183.838,333.052,183.672,333.274,183.672,333.274z"/>
					</g>
				</g>
				<g>
					<path style="fill:#5E4753;" d="M183.843,315.354c0,0,1.51-15.102,3.322-16.008c1.812-0.906,16.914,8.759,18.122,14.196
						c1.208,5.437-19.935,13.894-21.143,11.176C182.937,321.999,183.843,315.354,183.843,315.354z"/>
					<path style="fill:#5E4753;" d="M154.331,316.614c0,0-9.241-4.078-9.452-6.093s9.784-15.401,15.298-14.619
						c5.514,0.781,5.995,23.548,3.025,23.723C160.233,319.8,154.331,316.614,154.331,316.614z"/>
				</g>
			</g>
			<path style="fill:#955450;" d="M196.706,325.434c0,0-10.381,16.522,0.597,5.1c0,0-9.675,20.658,1.928,1.187
				c0,0-8.159,18.394,1.928,2.374c0,0-4.895,13.499,2.522,2.522c0,0,1.307-3.83,0.327-5.426
				C203.028,329.593,198.994,321.763,196.706,325.434z"/>
		</g>
	</g>
</g>
</svg>
